<?xml version="1.0" encoding="UTF-8" standalone="no"?>
<!-- Created with Inkscape (http://www.inkscape.org/) -->

<svg
   width="8.5in"
   height="2.3in"
   viewBox="0 0 215.9 58.419998"
   version="1.1"
   id="svg1"
   xml:space="preserve"
   xmlns:xlink="http://www.w3.org/1999/xlink"
   xmlns="http://www.w3.org/2000/svg"
   xmlns:svg="http://www.w3.org/2000/svg"><defs
     id="defs1"><linearGradient
       id="linearGradient4"><stop
         style="stop-color:#ff7f2a;stop-opacity:1;"
         offset="0"
         id="stop4" /><stop
         style="stop-color:#66ff00;stop-opacity:1;"
         offset="1"
         id="stop5" /></linearGradient><linearGradient
       id="linearGradient1"><stop
         style="stop-color:#ff6700;stop-opacity:1;"
         offset="0"
         id="stop1" /><stop
         style="stop-color:#66ff00;stop-opacity:1;"
         offset="1"
         id="stop2" /></linearGradient><linearGradient
       xlink:href="#linearGradient1"
       id="linearGradient2"
       x1="165.17767"
       y1="19.178644"
       x2="192.12338"
       y2="19.178644"
       gradientUnits="userSpaceOnUse" /><linearGradient
       xlink:href="#linearGradient4"
       id="linearGradient5"
       x1="1.4594805"
       y1="45.521797"
       x2="214.4408"
       y2="45.521797"
       gradientUnits="userSpaceOnUse" /><linearGradient
       xlink:href="#linearGradient4"
       id="linearGradient7"
       gradientUnits="userSpaceOnUse"
       x1="1.4594805"
       y1="45.521797"
       x2="214.4408"
       y2="45.521797" /><linearGradient
       xlink:href="#linearGradient4"
       id="linearGradient8"
       gradientUnits="userSpaceOnUse"
       x1="1.4594805"
       y1="45.521797"
       x2="214.4408"
       y2="45.521797" /></defs><g
     id="layer1"><g
       id="g4"><circle
         id="path1"
         style="fill:#ff7f2a;stroke:#000000;stroke-width:0.264583"
         cx="59.679195"
         cy="63.518211"
         r="0.046486616" /><circle
         id="path2"
         style="fill:#ff7f2a;stroke:#000000;stroke-width:0.264583"
         cx="-62.820213"
         cy="129.82843"
         r="0.046486616" /><g
         id="text2"
         style="font-size:27.8655px;font-family:Quicksand;-inkscape-font-specification:Quicksand;fill:url(#linearGradient5);stroke-width:2.08991"
         aria-label="announcestream"><path
           d="m 13.97109,40.320582 q 0.362251,0 0.585175,0.25079 0.25079,0.250789 0.25079,0.613041 v 12.539475 q 0,0.334386 -0.25079,0.585175 -0.250789,0.25079 -0.585175,0.25079 -0.362252,0 -0.613041,-0.25079 -0.222924,-0.250789 -0.222924,-0.585175 v -3.315995 l 0.473713,-0.222924 q 0,0.780234 -0.445848,1.588334 -0.417982,0.808099 -1.170351,1.504737 -0.752368,0.696637 -1.783392,1.142485 -1.0031577,0.417983 -2.1735087,0.417983 -1.8948539,0 -3.3995909,-0.975293 -1.4768715,-0.975292 -2.3407019,-2.675088 -0.835965,-1.699795 -0.835965,-3.817573 0,-2.173509 0.8638305,-3.817574 0.8638304,-1.67193 2.3407019,-2.619357 1.4768715,-0.947427 3.34386,-0.947427 1.1982164,0 2.2292401,0.417983 1.058889,0.417982 1.839123,1.142485 0.780234,0.724503 1.198216,1.67193 0.445848,0.919562 0.445848,1.92272 l -0.585175,-0.417983 v -3.538918 q 0,-0.362252 0.222924,-0.613041 0.250789,-0.25079 0.613041,-0.25079 z M 8.1750658,53.27804 q 1.4768715,0 2.6193572,-0.752369 1.142485,-0.780234 1.783392,-2.117778 0.668772,-1.365409 0.668772,-3.037339 0,-1.644065 -0.668772,-2.953743 -0.640907,-1.309679 -1.783392,-2.089913 -1.1424857,-0.780234 -2.6193572,-0.780234 -1.4490059,0 -2.6193569,0.752369 -1.1424855,0.752368 -1.8112575,2.062047 -0.6409065,1.309678 -0.6409065,3.009474 0,1.67193 0.6409065,3.037339 0.668772,1.337544 1.8112575,2.117778 1.1424855,0.752369 2.6193569,0.752369 z M 25.897549,39.986196 q 1.839123,0 2.925878,0.752369 1.11462,0.724503 1.588333,2.006316 0.501579,1.253947 0.501579,2.78655 v 8.192457 q 0,0.334386 -0.250789,0.585175 -0.25079,0.25079 -0.585176,0.25079 -0.390117,0 -0.613041,-0.25079 -0.222924,-0.250789 -0.222924,-0.585175 v -8.108861 q 0,-1.11462 -0.362251,-2.034181 -0.362252,-0.919562 -1.198217,-1.476872 -0.808099,-0.55731 -2.145643,-0.55731 -1.198217,0 -2.284971,0.55731 -1.058889,0.55731 -1.727661,1.476872 -0.668772,0.919561 -0.668772,2.034181 v 8.108861 q 0,0.334386 -0.25079,0.585175 -0.250789,0.25079 -0.585175,0.25079 -0.390117,0 -0.613041,-0.25079 -0.222924,-0.250789 -0.222924,-0.585175 V 41.240144 q 0,-0.334386 0.222924,-0.585176 0.250789,-0.250789 0.613041,-0.250789 0.362251,0 0.585175,0.250789 0.25079,0.25079 0.25079,0.585176 v 2.340702 l -0.640907,1.003158 q 0.05573,-0.891696 0.55731,-1.699796 0.529445,-0.835965 1.337544,-1.476871 0.8081,-0.668772 1.783392,-1.031024 1.003158,-0.390117 2.006316,-0.390117 z m 16.106234,0 q 1.839123,0 2.925877,0.752369 1.11462,0.724503 1.588334,2.006316 0.501579,1.253947 0.501579,2.78655 v 8.192457 q 0,0.334386 -0.25079,0.585175 -0.250789,0.25079 -0.585175,0.25079 -0.390117,0 -0.613041,-0.25079 -0.222924,-0.250789 -0.222924,-0.585175 v -8.108861 q 0,-1.11462 -0.362252,-2.034181 -0.362251,-0.919562 -1.198216,-1.476872 -0.8081,-0.55731 -2.145644,-0.55731 -1.198216,0 -2.284971,0.55731 -1.058889,0.55731 -1.727661,1.476872 -0.668772,0.919561 -0.668772,2.034181 v 8.108861 q 0,0.334386 -0.250789,0.585175 -0.250789,0.25079 -0.585175,0.25079 -0.390117,0 -0.613041,-0.25079 -0.222924,-0.250789 -0.222924,-0.585175 V 41.240144 q 0,-0.334386 0.222924,-0.585176 0.250789,-0.250789 0.613041,-0.250789 0.362251,0 0.585175,0.250789 0.250789,0.25079 0.250789,0.585176 v 2.340702 l -0.640906,1.003158 q 0.05573,-0.891696 0.55731,-1.699796 0.529444,-0.835965 1.337544,-1.476871 0.808099,-0.668772 1.783392,-1.031024 1.003158,-0.390117 2.006316,-0.390117 z m 22.654624,7.440089 q 0,2.117778 -0.919562,3.817573 -0.919561,1.67193 -2.507894,2.647223 -1.588334,0.947427 -3.622515,0.947427 -1.978451,0 -3.59465,-0.947427 -1.588333,-0.975293 -2.53576,-2.647223 -0.919562,-1.699795 -0.919562,-3.817573 0,-2.145644 0.919562,-3.817574 0.947427,-1.67193 2.53576,-2.647222 1.616199,-0.975293 3.59465,-0.975293 2.034181,0 3.622515,0.975293 1.588333,0.975292 2.507894,2.647222 0.919562,1.67193 0.919562,3.817574 z m -1.67193,0 q 0,-1.699796 -0.696637,-3.009474 -0.696638,-1.337544 -1.92272,-2.089913 -1.198216,-0.780234 -2.758684,-0.780234 -1.504737,0 -2.730819,0.780234 -1.226082,0.752369 -1.950585,2.089913 -0.696638,1.309678 -0.696638,3.009474 0,1.699795 0.696638,3.009474 0.724503,1.309678 1.950585,2.089912 1.226082,0.752369 2.730819,0.752369 1.560468,0 2.758684,-0.752369 1.226082,-0.780234 1.92272,-2.089912 0.696637,-1.309679 0.696637,-3.009474 z m 15.883338,-7.022106 q 0.362251,0 0.585175,0.250789 0.25079,0.25079 0.25079,0.585176 v 7.858071 q 0,2.758684 -1.560468,4.20769 -1.560468,1.449006 -4.207691,1.449006 -2.619357,0 -4.179825,-1.449006 -1.532602,-1.449006 -1.532602,-4.20769 v -7.858071 q 0,-0.334386 0.222924,-0.585176 0.250789,-0.250789 0.613041,-0.250789 0.362251,0 0.585175,0.250789 0.25079,0.25079 0.25079,0.585176 v 7.858071 q 0,2.006316 1.058889,3.065205 1.086754,1.031023 2.981608,1.031023 1.92272,0 3.009474,-1.031023 1.086755,-1.058889 1.086755,-3.065205 v -7.858071 q 0,-0.334386 0.222924,-0.585176 0.222924,-0.250789 0.613041,-0.250789 z m 11.926441,-0.417983 q 1.839123,0 2.925877,0.752369 1.11462,0.724503 1.588334,2.006316 0.501579,1.253947 0.501579,2.78655 v 8.192457 q 0,0.334386 -0.25079,0.585175 -0.250789,0.25079 -0.585175,0.25079 -0.390117,0 -0.613041,-0.25079 -0.222924,-0.250789 -0.222924,-0.585175 v -8.108861 q 0,-1.11462 -0.362252,-2.034181 -0.362251,-0.919562 -1.198216,-1.476872 -0.8081,-0.55731 -2.145644,-0.55731 -1.198216,0 -2.284971,0.55731 -1.058889,0.55731 -1.727661,1.476872 -0.668772,0.919561 -0.668772,2.034181 v 8.108861 q 0,0.334386 -0.250789,0.585175 -0.25079,0.25079 -0.585176,0.25079 -0.390117,0 -0.613041,-0.25079 Q 84.08067,54.058274 84.08067,53.723888 V 41.240144 q 0,-0.334386 0.222924,-0.585176 0.25079,-0.250789 0.613041,-0.250789 0.362252,0 0.585176,0.250789 0.250789,0.25079 0.250789,0.585176 v 2.340702 l -0.640906,1.003158 q 0.05573,-0.891696 0.55731,-1.699796 0.529444,-0.835965 1.337544,-1.476871 0.808099,-0.668772 1.783392,-1.031024 1.003158,-0.390117 2.006316,-0.390117 z m 15.660394,0 q 1.33754,0 2.45216,0.306521 1.11462,0.278655 1.78339,0.780234 0.69664,0.501579 0.69664,1.086754 0,0.278655 -0.19506,0.55731 -0.19506,0.25079 -0.52944,0.25079 -0.33439,0 -0.55731,-0.167193 -0.19506,-0.167193 -0.41798,-0.390117 -0.19506,-0.222924 -0.58518,-0.417983 -0.36225,-0.167193 -1.03102,-0.30652 -0.66878,-0.139328 -1.53261,-0.139328 -1.56046,0 -2.81441,0.780234 -1.25395,0.780234 -1.97845,2.117778 -0.72451,1.309679 -0.72451,2.953743 0,1.67193 0.69664,3.009474 0.69664,1.337544 1.92272,2.117778 1.22608,0.752369 2.87015,0.752369 1.11462,0 1.72766,-0.195059 0.61304,-0.195058 1.05889,-0.445848 0.52944,-0.30652 0.75237,-0.585175 0.25079,-0.306521 0.6409,-0.306521 0.36225,0 0.52945,0.222924 0.19506,0.195059 0.19506,0.529445 0,0.445848 -0.66878,1.003158 -0.6409,0.529444 -1.78339,0.947427 -1.14248,0.390117 -2.61935,0.390117 -2.08992,0 -3.67825,-0.975293 -1.56047,-0.975292 -2.45216,-2.647222 -0.863835,-1.699796 -0.863835,-3.817574 0,-2.034181 0.891695,-3.706111 0.8917,-1.67193 2.48003,-2.675088 1.6162,-1.031024 3.73398,-1.031024 z m 14.6015,14.852312 q -2.14564,0 -3.78971,-0.919562 -1.64406,-0.919561 -2.56362,-2.563626 -0.91956,-1.644064 -0.91956,-3.845439 0,-2.368567 0.91956,-4.040497 0.94742,-1.67193 2.4243,-2.563626 1.50473,-0.919562 3.17666,-0.919562 1.22608,0 2.36857,0.445848 1.17035,0.417983 2.06205,1.281813 0.91956,0.835965 1.449,2.062047 0.55731,1.226082 0.61304,2.842281 -0.0279,0.334386 -0.27865,0.585176 -0.25079,0.222924 -0.58518,0.222924 h -11.17406 l -0.33439,-1.504737 h 10.97901 l -0.36225,0.334386 v -0.55731 q -0.11146,-1.309679 -0.83597,-2.22924 -0.7245,-0.919562 -1.75552,-1.393275 -1.03103,-0.473714 -2.14565,-0.473714 -0.83596,0 -1.72766,0.334386 -0.86383,0.334386 -1.58833,1.058889 -0.69664,0.696638 -1.14249,1.811258 -0.44585,1.086754 -0.44585,2.591491 0,1.644065 0.66878,2.981609 0.66877,1.337544 1.92272,2.117778 1.28181,0.780234 3.03734,0.780234 0.97529,0 1.75552,-0.278655 0.78024,-0.278655 1.36541,-0.724503 0.58518,-0.473714 0.97529,-0.975293 0.30652,-0.250789 0.61304,-0.250789 0.27866,0 0.47372,0.222924 0.22292,0.222924 0.22292,0.501579 0,0.334386 -0.27865,0.585175 -0.83597,1.003158 -2.17351,1.755527 -1.33755,0.724503 -2.92588,0.724503 z"
           id="path3"
           style="fill:url(#linearGradient7)" /><path
           style="font-weight:bold;font-family:Roboto;-inkscape-font-specification:'Roboto Bold';fill:url(#linearGradient8)"
           d="m 137.64739,50.491599 q 0,-0.421793 -0.24491,-0.761948 -0.24492,-0.340155 -0.91162,-0.625885 -0.6531,-0.299336 -1.89126,-0.544248 -1.11571,-0.244912 -2.08175,-0.612279 -0.95244,-0.380974 -1.65996,-0.911616 -0.69391,-0.530641 -1.08849,-1.25177 -0.39458,-0.734735 -0.39458,-1.673563 0,-0.925221 0.39458,-1.741593 0.40818,-0.816372 1.15652,-1.442258 0.76195,-0.639491 1.85045,-0.993252 1.1021,-0.367368 2.47633,-0.367368 1.91847,0 3.2927,0.612279 1.38783,0.612279 2.12256,1.687169 0.74834,1.061284 0.74834,2.421904 h -3.91858 q 0,-0.571461 -0.24491,-1.020465 -0.23131,-0.462611 -0.73474,-0.721129 -0.48982,-0.272124 -1.27898,-0.272124 -0.6531,0 -1.12932,0.231306 -0.47621,0.217699 -0.73473,0.598672 -0.24491,0.367368 -0.24491,0.816372 0,0.340155 0.13606,0.61228 0.14967,0.258517 0.47622,0.476217 0.32655,0.217699 0.84358,0.408186 0.53064,0.17688 1.3062,0.326548 1.59192,0.326549 2.84369,0.857191 1.25177,0.517036 1.98651,1.415045 0.73473,0.884403 0.73473,2.32666 0,0.979647 -0.4354,1.796019 -0.43539,0.816372 -1.25177,1.428651 -0.81637,0.598673 -1.95929,0.938828 -1.12931,0.326549 -2.54436,0.326549 -2.05453,0 -3.48319,-0.734735 -1.41504,-0.734735 -2.14978,-1.86405 -0.72112,-1.142921 -0.72112,-2.340266 h 3.71449 q 0.0272,0.802766 0.40818,1.292589 0.39458,0.489823 0.99326,0.707522 0.61228,0.217699 1.3198,0.217699 0.76195,0 1.26538,-0.204093 0.50342,-0.217699 0.76194,-0.57146 0.27213,-0.367367 0.27213,-0.843584 z m 13.56539,-10.653656 v 2.775665 h -8.5719 v -2.775665 z m -6.44934,-3.632855 h 3.91859 v 13.919143 q 0,0.639492 0.16327,0.979647 0.17688,0.340155 0.51704,0.476217 0.34015,0.122455 0.85719,0.122455 0.36737,0 0.6531,-0.02721 0.29933,-0.04082 0.50343,-0.08164 l 0.0136,2.884514 q -0.50343,0.163275 -1.08849,0.258518 -0.58507,0.09524 -1.29259,0.09524 -1.29259,0 -2.25863,-0.421793 -0.95244,-0.435398 -1.46947,-1.387832 -0.51704,-0.952434 -0.51704,-2.503541 z m 12.58573,6.843919 v 11.510846 h -3.91858 v -14.72191 h 3.68728 z m 4.43562,-3.306307 -0.068,3.632855 q -0.28573,-0.04082 -0.69391,-0.06803 -0.39458,-0.04082 -0.72113,-0.04082 -0.82998,0 -1.44226,0.217699 -0.59867,0.204093 -1.00686,0.612279 -0.39458,0.408186 -0.59867,0.993253 -0.19049,0.585066 -0.2177,1.333407 l -0.78916,-0.244911 q 0,-1.428651 0.28573,-2.625997 0.28573,-1.210952 0.82998,-2.108961 0.55785,-0.898009 1.36062,-1.387833 0.80277,-0.489823 1.83684,-0.489823 0.32655,0 0.6667,0.05443 0.34016,0.04082 0.55785,0.122456 z m 8.36782,15.089277 q -1.71438,0 -3.075,-0.544248 -1.36062,-0.557855 -2.31305,-1.537501 -0.93883,-0.979647 -1.44226,-2.272236 -0.50343,-1.306195 -0.50343,-2.775665 v -0.544248 q 0,-1.673562 0.47622,-3.061395 0.47621,-1.387832 1.36062,-2.408297 0.89801,-1.020466 2.17699,-1.564714 1.27898,-0.557854 2.88451,-0.557854 1.56472,0 2.77567,0.517036 1.21095,0.517035 2.02732,1.46947 0.82998,0.952434 1.25177,2.285841 0.4218,1.319802 0.4218,2.93894 v 1.632744 h -11.70134 v -2.612391 h 7.85078 v -0.299336 q 0,-0.816372 -0.29934,-1.455864 -0.28573,-0.653097 -0.87079,-1.034071 -0.58507,-0.380974 -1.49668,-0.380974 -0.77556,0 -1.33341,0.340155 -0.55786,0.340155 -0.91162,0.952434 -0.34015,0.61228 -0.51703,1.442258 -0.16328,0.816372 -0.16328,1.796018 v 0.544248 q 0,0.884403 0.24491,1.632744 0.25852,0.748341 0.72113,1.29259 0.47622,0.544248 1.14292,0.843584 0.68031,0.299336 1.5375,0.299336 1.06129,0 1.9729,-0.408186 0.92522,-0.421792 1.59193,-1.265376 l 1.90487,2.068142 q -0.46261,0.666704 -1.26538,1.278983 -0.78916,0.612279 -1.90487,1.006859 -1.11571,0.380974 -2.54436,0.380974 z m 16.2186,-3.592037 v -6.558189 q 0,-0.707523 -0.23131,-1.210952 -0.2313,-0.517036 -0.72113,-0.802766 -0.47621,-0.28573 -1.23816,-0.28573 -0.6531,0 -1.12932,0.231305 -0.47621,0.217699 -0.73473,0.639492 -0.25852,0.408186 -0.25852,0.96604 h -3.91858 q 0,-0.938828 0.43539,-1.782412 0.4354,-0.843585 1.26538,-1.483076 0.82998,-0.653098 1.9729,-1.020465 1.15653,-0.367368 2.58518,-0.367368 1.71438,0 3.04779,0.571461 1.3334,0.57146 2.09535,1.714381 0.77556,1.142921 0.77556,2.857302 v 6.299671 q 0,1.210952 0.14966,1.986505 0.14967,0.761948 0.4354,1.333408 v 0.231306 h -3.9594 q -0.28573,-0.598673 -0.4354,-1.496683 -0.13606,-0.911615 -0.13606,-1.82323 z m 0.51703,-5.646574 0.0272,2.217811 h -2.1906 q -0.77556,0 -1.34702,0.176881 -0.57146,0.17688 -0.93882,0.503429 -0.36737,0.312943 -0.54425,0.734735 -0.16328,0.421792 -0.16328,0.925222 0,0.503429 0.23131,0.911615 0.2313,0.39458 0.6667,0.625885 0.4354,0.217699 1.02047,0.217699 0.8844,0 1.5375,-0.353761 0.6531,-0.353761 1.00686,-0.870797 0.36736,-0.517035 0.38097,-0.979646 l 1.03407,1.659956 q -0.2177,0.557855 -0.59867,1.156527 -0.36737,0.598673 -0.93883,1.129315 -0.57146,0.517036 -1.37423,0.857191 -0.80276,0.326549 -1.90486,0.326549 -1.40144,0 -2.54436,-0.557855 -1.12932,-0.57146 -1.79602,-1.564713 -0.6531,-1.006859 -0.6531,-2.285841 0,-1.156528 0.4354,-2.054537 0.4354,-0.898009 1.27898,-1.510288 0.85719,-0.625885 2.13618,-0.938828 1.27898,-0.326549 2.96615,-0.326549 z m 10.36792,-2.707634 v 11.674121 h -3.9322 v -14.72191 h 3.68728 z m -0.54425,3.79613 h -1.0885 q 0,-1.5375 0.36737,-2.83009 0.38097,-1.306195 1.1021,-2.258629 0.73474,-0.96604 1.80963,-1.496682 1.07489,-0.530642 2.48993,-0.530642 0.97965,0 1.79602,0.299337 0.81637,0.28573 1.40144,0.911615 0.59867,0.612279 0.92522,1.605532 0.32655,0.979646 0.32655,2.353873 v 9.823677 h -3.91859 v -9.388279 q 0,-1.006859 -0.27212,-1.551107 -0.27213,-0.544248 -0.77555,-0.761947 -0.48983,-0.217699 -1.18374,-0.217699 -0.76195,0 -1.33341,0.312942 -0.55786,0.312943 -0.92522,0.870797 -0.36737,0.544248 -0.54425,1.278983 -0.17688,0.734735 -0.17688,1.578319 z m 8.76239,-0.449004 -1.40144,0.17688 q 0,-1.442257 0.35376,-2.680421 0.36737,-1.238165 1.07489,-2.176992 0.72113,-0.938828 1.78242,-1.455864 1.06128,-0.530642 2.44911,-0.530642 1.06129,0 1.93208,0.312943 0.8708,0.299336 1.48308,0.96604 0.62588,0.653098 0.95243,1.714381 0.34016,1.061284 0.34016,2.598785 v 9.401885 h -3.93219 v -9.401885 q 0,-1.020465 -0.27213,-1.551107 -0.25852,-0.544248 -0.76195,-0.748341 -0.48982,-0.217699 -1.17013,-0.217699 -0.70752,0 -1.23816,0.28573 -0.53065,0.272124 -0.88441,0.761947 -0.35376,0.489823 -0.53064,1.142921 -0.17688,0.639491 -0.17688,1.401439 z"
           id="path4" /></g><path
         d="m 181.06797,3.5814726 c -0.18807,0.0079 -0.36485,0.091627 -0.49171,0.2314374 -0.12662,0.1390205 -0.19305,0.3230646 -0.1842,0.5110581 0.009,0.1879936 0.0919,0.3649287 0.23112,0.4921008 0.13926,0.1263822 0.32315,0.1927329 0.51122,0.1840441 5.29413,0 9.5709,4.2767744 9.5709,9.570926 -0.003,0.189573 0.0711,0.372827 0.20403,0.507898 0.13325,0.135071 0.31516,0.211691 0.50498,0.211691 0.18981,0 0.37164,-0.07899 0.50497,-0.211691 0.13318,-0.135071 0.20664,-0.318325 0.20403,-0.507898 0,-6.0604228 -4.92843,-10.9887765 -10.98881,-10.9887765 -0.0221,-0.00111 -0.0442,-0.00111 -0.0663,0 z m 0,2.8358591 c -0.18807,0.0079 -0.36485,0.091627 -0.49171,0.2314374 -0.12662,0.1390205 -0.19305,0.3230646 -0.1842,0.5110581 0.009,0.1879936 0.0919,0.3649287 0.23112,0.4921008 0.13926,0.1263822 0.32315,0.1927329 0.51122,0.1840441 3.72822,0 6.73508,3.0068699 6.73508,6.7350669 -0.003,0.189573 0.0711,0.372827 0.20403,0.507898 0.13325,0.135071 0.31517,0.211691 0.50498,0.211691 0.18981,0 0.37164,-0.07899 0.50497,-0.211691 0.13318,-0.135071 0.20664,-0.318325 0.20403,-0.507898 0,-4.494152 -3.65881,-8.1529964 -8.153,-8.1529964 -0.0221,-0.00103 -0.0442,-0.00103 -0.0663,0 z m -10.2577,2.8357801 c -0.22354,0.023697 -0.42086,0.1587676 -0.53176,0.3546601 -2.32948,4.0334101 -2.02868,9.1615261 0.89728,12.9053631 l -5.91536,11.221635 c -0.11706,0.220379 -0.1094,0.486572 0.0197,0.699842 0.12946,0.21327 0.36161,0.342811 0.61129,0.341232 h 14.17912 c 0.24969,0.0013 0.48183,-0.127962 0.6113,-0.341232 0.12946,-0.21327 0.13704,-0.479463 0.0197,-0.699842 l -3.84372,-7.278036 c 3.04999,0.946603 6.41369,0.601105 9.23858,-1.030252 0.18776,-0.111375 0.3139,-0.302528 0.34202,-0.518957 0.0284,-0.21643 -0.045,-0.433649 -0.19802,-0.589257 l -6.92354,-6.934435 3.02429,-3.024327 c 0.13752,-0.132701 0.21556,-0.315955 0.21611,-0.507108 6.7e-4,-0.191153 -0.0758,-0.374408 -0.21279,-0.508689 -0.13665,-0.134281 -0.32157,-0.206951 -0.51288,-0.202211 -0.18515,0.0077 -0.36011,0.08689 -0.48736,0.221169 l -3.02429,3.024326 -6.93447,-6.9235338 c -0.15008,-0.1540284 -0.36209,-0.2314375 -0.57599,-0.2101105 z m 10.2577,0 c -0.18807,0.0079 -0.36485,0.091627 -0.49171,0.2314374 -0.12662,0.1390205 -0.19305,0.3230646 -0.1842,0.5110581 0.009,0.1879937 0.0919,0.3649287 0.23112,0.4913107 0.13926,0.126382 0.32315,0.192733 0.51122,0.184044 2.16196,0 3.89926,1.737361 3.89926,3.899287 -0.003,0.189573 0.0711,0.372827 0.20403,0.507898 0.13325,0.135071 0.31517,0.211691 0.50498,0.211691 0.18981,0 0.37164,-0.07899 0.50497,-0.211691 0.13318,-0.135071 0.20664,-0.318325 0.20403,-0.507898 0,-2.928276 -2.38892,-5.3171372 -5.31716,-5.3171372 -0.0221,-0.00103 -0.0442,-0.00103 -0.0663,0 z m -9.96969,1.9164282 13.43708,13.437037 c -3.75038,1.719825 -8.31546,1.067298 -11.40976,-2.027092 -3.09431,-3.094469 -3.74683,-7.659394 -2.02717,-11.409787 z m 1.0856,12.484115 c 0.79455,0.78199 1.67903,1.421642 2.61427,1.927487 l 4.09864,7.776377 h -11.8307 z"
         id="path1-8"
         style="fill:url(#linearGradient2);stroke-width:0.0295399" /></g></g></svg>
